<svg width="160" height="69" viewBox="0 0 160 69" fill="none" xmlns="http://www.w3.org/2000/svg">
<g clip-path="url(#clip0_6806_101795)">
<path d="M70.9804 55.1237C70.9804 54.4561 70.8055 53.9437 70.4557 53.5866C70.1137 53.2218 69.624 53.0393 68.9866 53.0393C68.8078 53.0393 68.6251 53.051 68.4385 53.0743C68.2598 53.0976 68.0965 53.1247 67.9488 53.1558C67.8089 53.1868 67.6146 53.2412 67.3658 53.3188L67.3542 53.6914L67.3075 54.6695C67.2998 54.7705 67.2959 54.8714 67.2959 54.9723C67.2959 55.0654 67.2959 55.1586 67.2959 55.2517C67.2959 55.6011 67.3114 55.8922 67.3425 56.1251C67.3814 56.3502 67.4436 56.5559 67.5291 56.7422C67.6612 57.0139 67.8594 57.2313 68.1237 57.3943C68.388 57.5495 68.6951 57.6272 69.0449 57.6272C69.3325 57.6272 69.5968 57.5689 69.8377 57.4525C70.0787 57.3283 70.2808 57.1575 70.444 56.9402C70.6151 56.7228 70.7472 56.4627 70.8405 56.16C70.9338 55.8495 70.9804 55.504 70.9804 55.1237ZM71.9715 55.112C71.9715 55.6011 71.9054 56.0474 71.7733 56.4511C71.6489 56.847 71.4662 57.1847 71.2253 57.4641C70.9921 57.7436 70.7083 57.961 70.3741 58.1162C70.0398 58.2715 69.6706 58.3491 69.2664 58.3491C68.7534 58.3491 68.3297 58.2443 67.9955 58.0347C67.669 57.8251 67.4047 57.4913 67.2026 57.0333L67.1793 58.221H67.0393C66.9772 58.2133 66.915 58.2094 66.8528 58.2094C66.7984 58.2094 66.7517 58.2094 66.7129 58.2094C66.6818 58.2094 66.639 58.2133 66.5846 58.221C66.5302 58.221 66.4602 58.221 66.3747 58.221H66.1998C66.2154 58.1201 66.2232 58.0308 66.2232 57.9532C66.2309 57.8756 66.2387 57.8135 66.2465 57.7669C66.262 57.5728 66.2776 57.2778 66.2931 56.8819C66.3164 56.486 66.3398 55.9853 66.3631 55.3798L66.4447 53.1441L66.503 50.9201L66.5147 50.4543L66.6662 50.466H67.0627H67.4241L67.564 50.4543C67.5485 50.6174 67.533 50.761 67.5174 50.8852C67.5096 51.0094 67.498 51.1375 67.4824 51.2694C67.4747 51.4014 67.4669 51.545 67.4591 51.7003C67.4513 51.8555 67.4436 52.0457 67.4358 52.2708L67.4241 52.5503C67.533 52.5348 67.6223 52.5192 67.6923 52.5037C67.77 52.4882 67.8322 52.4727 67.8789 52.4571C68.1121 52.4183 68.3297 52.3873 68.5318 52.364C68.7339 52.3407 68.9438 52.329 69.1615 52.329C70.0787 52.329 70.7744 52.5658 71.2486 53.0393C71.7305 53.5051 71.9715 54.196 71.9715 55.112ZM78.7828 52.4571C78.7673 52.6279 78.7556 52.7715 78.7479 52.888C78.7479 53.0044 78.744 53.1286 78.7362 53.2606C78.7284 53.3926 78.7168 53.5517 78.7012 53.738C78.6934 53.9165 78.6818 54.1533 78.6662 54.4483C78.6429 54.9296 78.6196 55.3216 78.5963 55.6244C78.5807 55.9193 78.5652 56.1794 78.5496 56.4045C78.5419 56.6219 78.5341 56.8276 78.5263 57.0217C78.5263 57.208 78.5263 57.4292 78.5263 57.6854V58.221C78.4097 58.2133 78.3203 58.2094 78.2581 58.2094C78.2037 58.2094 78.1338 58.2094 78.0483 58.2094C77.9628 58.2094 77.8889 58.2094 77.8267 58.2094C77.7645 58.2094 77.679 58.2133 77.5702 58.221L77.6052 57.1265C77.5585 57.2119 77.5119 57.2895 77.4653 57.3593C77.4264 57.4214 77.3875 57.4797 77.3487 57.534C77.1621 57.7979 76.8978 57.9998 76.5558 58.1395C76.2138 58.2792 75.8096 58.3491 75.3432 58.3491C73.8896 58.3491 73.1628 57.7281 73.1628 56.486C73.1628 56.4084 73.1666 56.2803 73.1744 56.1018C73.1822 55.9232 73.1938 55.733 73.2094 55.5312C73.2249 55.3061 73.2405 55.0344 73.256 54.7161C73.2716 54.3978 73.2871 54.0602 73.3027 53.7031C73.3104 53.5556 73.3143 53.4314 73.3143 53.3305C73.3221 53.2295 73.326 53.1364 73.326 53.051C73.326 52.9656 73.326 52.8763 73.326 52.7832C73.326 52.69 73.326 52.5813 73.326 52.4571H73.4892C73.567 52.4571 73.633 52.461 73.6874 52.4688C73.7496 52.4688 73.8041 52.4688 73.8507 52.4688C73.8973 52.4688 73.9479 52.4688 74.0023 52.4688C74.0645 52.461 74.1305 52.4571 74.2005 52.4571H74.3404C74.3249 52.6279 74.3132 52.7793 74.3054 52.9113C74.2977 53.0355 74.2899 53.1558 74.2821 53.2722C74.2743 53.3809 74.2666 53.4974 74.2588 53.6216C74.251 53.738 74.2432 53.87 74.2355 54.0175L74.1655 55.0654C74.15 55.3061 74.1383 55.5196 74.1305 55.7059C74.1228 55.8844 74.1189 56.0319 74.1189 56.1483C74.1189 57.0954 74.6358 57.5689 75.6696 57.5689C76.1594 57.5689 76.5675 57.4447 76.8939 57.1963C77.2282 56.9479 77.4497 56.5947 77.5585 56.1367C77.5819 56.0436 77.6013 55.9465 77.6168 55.8456C77.6324 55.7447 77.6479 55.6244 77.6635 55.4846C77.679 55.3449 77.6907 55.1819 77.6985 54.9956C77.7062 54.8093 77.7179 54.5841 77.7334 54.3202C77.7412 54.1029 77.7451 53.9204 77.7451 53.7729C77.7529 53.6177 77.7568 53.4741 77.7568 53.3421C77.7645 53.2024 77.7684 53.0665 77.7684 52.9346C77.7762 52.8026 77.7801 52.6434 77.7801 52.4571H77.9433C78.0211 52.4571 78.091 52.461 78.1532 52.4688C78.2154 52.4688 78.2659 52.4688 78.3048 52.4688C78.3592 52.4688 78.4136 52.4688 78.468 52.4688C78.5302 52.4688 78.5924 52.4649 78.6546 52.4571H78.7828ZM83.5414 53.2955C83.2926 53.2024 83.075 53.1364 82.8884 53.0976C82.7096 53.0588 82.5153 53.0393 82.3054 53.0393C81.9245 53.0393 81.6292 53.1053 81.4193 53.2373C81.2094 53.3615 81.1045 53.5439 81.1045 53.7846C81.1045 54.0252 81.2405 54.2698 81.5126 54.5182C81.5436 54.5492 81.5747 54.5803 81.6058 54.6113C81.6369 54.6346 81.6758 54.6657 81.7224 54.7045C81.7691 54.7433 81.8274 54.7937 81.8973 54.8558C81.9751 54.9102 82.0722 54.9839 82.1888 55.0771C82.4998 55.3255 82.7213 55.5118 82.8534 55.636C83.281 56.0319 83.4947 56.4511 83.4947 56.8936C83.4947 57.3283 83.3121 57.6815 82.9467 57.9532C82.5814 58.2171 82.0994 58.3491 81.5009 58.3491C81.4154 58.3491 81.3104 58.3452 81.1861 58.3375C81.0617 58.3297 80.9373 58.3181 80.813 58.3025C80.7041 58.2948 80.6109 58.2831 80.5331 58.2676C80.4554 58.2598 80.3777 58.2482 80.2999 58.2327C80.23 58.2171 80.1561 58.2016 80.0784 58.1861C80.0007 58.1628 79.9074 58.1395 79.7985 58.1162L79.7869 57.9765L79.7636 57.6737L79.7286 57.3826L79.7169 57.2662C79.9424 57.3593 80.1172 57.4253 80.2416 57.4641C80.3738 57.503 80.5215 57.5418 80.6847 57.5806C80.9023 57.6272 81.12 57.6504 81.3377 57.6504C81.7108 57.6504 82.0023 57.5767 82.2121 57.4292C82.422 57.2817 82.527 57.076 82.527 56.8121C82.527 56.5947 82.4492 56.4084 82.2938 56.2531C82.2316 56.191 82.1616 56.1251 82.0839 56.0552C82.0062 55.9853 81.9012 55.8961 81.7691 55.7874L81.3843 55.473C81.2055 55.3333 81.0617 55.2168 80.9529 55.1237C80.8441 55.0227 80.7547 54.9374 80.6847 54.8675C80.3116 54.4949 80.125 54.1106 80.125 53.7147C80.125 53.2878 80.2999 52.9501 80.6497 52.7017C80.9995 52.4533 81.4776 52.329 82.0839 52.329C82.2938 52.329 82.5075 52.3407 82.7252 52.364C82.9428 52.3873 83.1994 52.4261 83.4947 52.4804V52.5969C83.4947 52.7133 83.4947 52.8181 83.4947 52.9113C83.5025 52.9967 83.5142 53.0859 83.5297 53.1791L83.5414 53.2955ZM86.0347 52.4571C86.0191 52.5969 86.0074 52.7211 85.9997 52.8298C85.9997 52.9307 85.9958 53.0161 85.988 53.0859C85.9647 53.3887 85.9414 53.7419 85.9181 54.1455C85.9025 54.5414 85.887 54.9529 85.8714 55.3798C85.8559 55.799 85.8403 56.2143 85.8248 56.6258C85.817 57.0294 85.8131 57.3865 85.8131 57.697V58.221H85.6499C85.5799 58.221 85.5138 58.221 85.4517 58.221C85.3972 58.2133 85.3428 58.2094 85.2884 58.2094C85.2496 58.2094 85.199 58.2133 85.1368 58.221C85.0747 58.221 85.0008 58.221 84.9153 58.221H84.7521C84.7676 58.0735 84.7754 57.9454 84.7754 57.8368C84.7832 57.7281 84.7909 57.6349 84.7987 57.5573C84.8143 57.2934 84.8337 56.9673 84.857 56.5792C84.8803 56.191 84.8998 55.7369 84.9153 55.2168C84.9386 54.6812 84.9581 54.2154 84.9736 53.8195C84.9891 53.4236 84.9969 53.0898 84.9969 52.8181V52.4571H85.1602C85.2379 52.4571 85.304 52.461 85.3584 52.4688C85.4206 52.4688 85.4711 52.4688 85.51 52.4688C85.5488 52.4688 85.5955 52.4688 85.6499 52.4688C85.7121 52.461 85.7859 52.4571 85.8714 52.4571H86.0347ZM86.1046 50.5591V50.8153L86.093 51.0598L86.0813 51.2228H85.953C85.8909 51.2151 85.8248 51.2112 85.7548 51.2112C85.6849 51.2112 85.6188 51.2112 85.5566 51.2112C85.4944 51.2112 85.4283 51.2151 85.3584 51.2228C85.2884 51.2228 85.2185 51.2228 85.1485 51.2228H84.9969L85.0086 51.0365C85.0164 50.9667 85.0202 50.8852 85.0202 50.792C85.0202 50.6989 85.0202 50.6212 85.0202 50.5591V50.4194C85.1524 50.4194 85.2534 50.4233 85.3234 50.431C85.4011 50.431 85.4944 50.431 85.6032 50.431C85.7121 50.431 85.7976 50.431 85.8598 50.431C85.9219 50.4233 86.0075 50.4194 86.1163 50.4194L86.1046 50.5591ZM93.0423 54.1688C93.0423 54.2853 93.0384 54.4444 93.0306 54.6462C93.0228 54.8403 93.0112 55.0771 92.9956 55.3565C92.9879 55.4652 92.9801 55.6244 92.9723 55.834C92.9645 56.0358 92.9529 56.2881 92.9373 56.5908C92.9218 56.816 92.9101 56.9984 92.9024 57.1381C92.9024 57.2778 92.8985 57.402 92.8907 57.5107C92.8907 57.6194 92.8868 57.7281 92.879 57.8368C92.879 57.9377 92.879 58.0658 92.879 58.221C92.7702 58.2133 92.6847 58.2094 92.6225 58.2094C92.5603 58.2094 92.4787 58.2094 92.3777 58.2094C92.2766 58.2094 92.195 58.2094 92.1328 58.2094C92.0706 58.2094 91.9851 58.2133 91.8763 58.221C91.8841 58.0658 91.8918 57.9338 91.8996 57.8251C91.9074 57.7164 91.9151 57.6078 91.9229 57.4991C91.9307 57.3904 91.9346 57.274 91.9346 57.1498C91.9423 57.0178 91.954 56.8548 91.9696 56.6607L92.0279 55.5661C92.0434 55.3333 92.0551 55.1314 92.0628 54.9606C92.0706 54.7899 92.0745 54.6501 92.0745 54.5414C92.0745 53.5944 91.5537 53.1209 90.5121 53.1209C90.0223 53.1209 89.6065 53.2528 89.2645 53.5168C88.9302 53.7729 88.7087 54.1261 88.5998 54.5764C88.5765 54.6851 88.5532 54.7976 88.5299 54.9141C88.5143 55.0305 88.4988 55.1625 88.4832 55.31C88.4677 55.4575 88.4522 55.6282 88.4366 55.8223C88.4211 56.0164 88.4094 56.2454 88.4016 56.5093C88.3939 56.6568 88.3861 56.7927 88.3783 56.9169C88.3783 57.0333 88.3744 57.1575 88.3666 57.2895C88.3666 57.4137 88.3628 57.5495 88.355 57.697C88.355 57.8445 88.355 58.0192 88.355 58.221H88.2151C88.1529 58.2133 88.0907 58.2094 88.0285 58.2094C87.9741 58.2094 87.9158 58.2094 87.8536 58.2094C87.7992 58.2094 87.7409 58.2133 87.6787 58.221C87.6165 58.221 87.5505 58.221 87.4805 58.221H87.3173L87.3639 57.6272C87.395 57.239 87.4222 56.847 87.4455 56.4511C87.4688 56.0474 87.4922 55.636 87.5155 55.2168C87.531 54.9141 87.5427 54.654 87.5505 54.4367C87.566 54.2115 87.5777 54.0019 87.5854 53.8079C87.5932 53.606 87.5971 53.4003 87.5971 53.1907C87.6049 52.9811 87.6087 52.7366 87.6087 52.4571H87.7603C87.8303 52.4571 87.8964 52.461 87.9585 52.4688C88.0207 52.4688 88.0751 52.4688 88.1218 52.4688C88.1762 52.4688 88.2306 52.4688 88.285 52.4688C88.3472 52.4688 88.4094 52.4649 88.4716 52.4571H88.6115L88.5415 53.5983C88.5882 53.5129 88.6348 53.4391 88.6815 53.377C88.7281 53.3072 88.7709 53.2412 88.8097 53.1791C89.0118 52.8996 89.2878 52.69 89.6376 52.5503C89.9874 52.4028 90.4032 52.329 90.8852 52.329C92.3232 52.329 93.0423 52.9423 93.0423 54.1688ZM98.6734 54.6113C98.6578 54.0446 98.5296 53.6254 98.2886 53.3537C98.0476 53.082 97.6706 52.9462 97.1576 52.9462C96.8855 52.9462 96.629 53.0005 96.388 53.1092C96.147 53.2101 95.9411 53.3537 95.77 53.54C95.6379 53.6875 95.5368 53.8312 95.4669 53.9709C95.4047 54.1106 95.3425 54.3241 95.2803 54.6113H98.6734ZM99.6062 54.6812C99.6062 54.7666 99.6062 54.8326 99.6062 54.8791C99.6062 54.9257 99.5984 54.9917 99.5828 55.0771L95.2337 55.0887C95.2259 55.1896 95.2181 55.275 95.2104 55.3449C95.2104 55.4148 95.2104 55.4769 95.2104 55.5312C95.2104 56.191 95.3969 56.715 95.77 57.1032C96.1432 57.4913 96.6484 57.6854 97.2858 57.6854C97.5268 57.6854 97.7756 57.6621 98.0321 57.6155C98.1176 57.6 98.1953 57.5845 98.2653 57.5689C98.343 57.5534 98.4207 57.534 98.4985 57.5107C98.584 57.4874 98.6734 57.4641 98.7666 57.4409C98.8677 57.4098 98.9843 57.371 99.1164 57.3244C99.0931 57.4331 99.0737 57.5418 99.0581 57.6504C99.0426 57.7514 99.0232 57.8639 98.9998 57.9881L98.9765 58.1162C98.6112 58.2016 98.3002 58.2598 98.0437 58.2909C97.7872 58.3297 97.5113 58.3491 97.2159 58.3491C96.2442 58.3491 95.5019 58.1046 94.9888 57.6155C94.4758 57.1187 94.2193 56.4006 94.2193 55.4613C94.2193 54.98 94.2854 54.5492 94.4175 54.1688C94.5574 53.7807 94.7517 53.4508 95.0005 53.1791C95.257 52.9074 95.564 52.6978 95.9216 52.5503C96.287 52.4028 96.6951 52.329 97.1459 52.329C97.9232 52.329 98.5257 52.5348 98.9532 52.9462C99.3885 53.3576 99.6062 53.9359 99.6062 54.6812ZM104.079 53.2955C103.83 53.2024 103.613 53.1364 103.426 53.0976C103.247 53.0588 103.053 53.0393 102.843 53.0393C102.462 53.0393 102.167 53.1053 101.957 53.2373C101.747 53.3615 101.642 53.5439 101.642 53.7846C101.642 54.0252 101.778 54.2698 102.05 54.5182C102.081 54.5492 102.112 54.5803 102.143 54.6113C102.175 54.6346 102.213 54.6657 102.26 54.7045C102.307 54.7433 102.365 54.7937 102.435 54.8558C102.513 54.9102 102.61 54.9839 102.726 55.0771C103.037 55.3255 103.259 55.5118 103.391 55.636C103.819 56.0319 104.032 56.4511 104.032 56.8936C104.032 57.3283 103.85 57.6815 103.484 57.9532C103.119 58.2171 102.637 58.3491 102.039 58.3491C101.953 58.3491 101.848 58.3452 101.724 58.3375C101.599 58.3297 101.475 58.3181 101.351 58.3025C101.242 58.2948 101.149 58.2831 101.071 58.2676C100.993 58.2598 100.915 58.2482 100.838 58.2327C100.768 58.2171 100.694 58.2016 100.616 58.1861C100.538 58.1628 100.445 58.1395 100.336 58.1162L100.325 57.9765L100.301 57.6737L100.266 57.3826L100.255 57.2662C100.48 57.3593 100.655 57.4253 100.779 57.4641C100.911 57.503 101.059 57.5418 101.222 57.5806C101.44 57.6272 101.658 57.6504 101.875 57.6504C102.248 57.6504 102.54 57.5767 102.75 57.4292C102.96 57.2817 103.065 57.076 103.065 56.8121C103.065 56.5947 102.987 56.4084 102.831 56.2531C102.769 56.191 102.699 56.1251 102.622 56.0552C102.544 55.9853 102.439 55.8961 102.307 55.7874L101.922 55.473C101.743 55.3333 101.599 55.2168 101.491 55.1237C101.382 55.0227 101.292 54.9374 101.222 54.8675C100.849 54.4949 100.663 54.1106 100.663 53.7147C100.663 53.2878 100.838 52.9501 101.187 52.7017C101.537 52.4533 102.015 52.329 102.622 52.329C102.831 52.329 103.045 52.3407 103.263 52.364C103.48 52.3873 103.737 52.4261 104.032 52.4804V52.5969C104.032 52.7133 104.032 52.8181 104.032 52.9113C104.04 52.9967 104.052 53.0859 104.067 53.1791L104.079 53.2955ZM108.73 53.2955C108.481 53.2024 108.264 53.1364 108.077 53.0976C107.898 53.0588 107.704 53.0393 107.494 53.0393C107.113 53.0393 106.818 53.1053 106.608 53.2373C106.398 53.3615 106.293 53.5439 106.293 53.7846C106.293 54.0252 106.429 54.2698 106.701 54.5182C106.732 54.5492 106.763 54.5803 106.794 54.6113C106.826 54.6346 106.864 54.6657 106.911 54.7045C106.958 54.7433 107.016 54.7937 107.086 54.8558C107.164 54.9102 107.261 54.9839 107.378 55.0771C107.688 55.3255 107.91 55.5118 108.042 55.636C108.47 56.0319 108.683 56.4511 108.683 56.8936C108.683 57.3283 108.501 57.6815 108.135 57.9532C107.77 58.2171 107.288 58.3491 106.69 58.3491C106.604 58.3491 106.499 58.3452 106.375 58.3375C106.25 58.3297 106.126 58.3181 106.002 58.3025C105.893 58.2948 105.8 58.2831 105.722 58.2676C105.644 58.2598 105.566 58.2482 105.489 58.2327C105.419 58.2171 105.345 58.2016 105.267 58.1861C105.189 58.1628 105.096 58.1395 104.987 58.1162L104.976 57.9765L104.952 57.6737L104.917 57.3826L104.906 57.2662C105.131 57.3593 105.306 57.4253 105.43 57.4641C105.562 57.503 105.71 57.5418 105.873 57.5806C106.091 57.6272 106.309 57.6504 106.526 57.6504C106.899 57.6504 107.191 57.5767 107.401 57.4292C107.611 57.2817 107.716 57.076 107.716 56.8121C107.716 56.5947 107.638 56.4084 107.482 56.2531C107.42 56.191 107.35 56.1251 107.273 56.0552C107.195 55.9853 107.09 55.8961 106.958 55.7874L106.573 55.473C106.394 55.3333 106.25 55.2168 106.142 55.1237C106.033 55.0227 105.943 54.9374 105.873 54.8675C105.5 54.4949 105.314 54.1106 105.314 53.7147C105.314 53.2878 105.489 52.9501 105.838 52.7017C106.188 52.4533 106.666 52.329 107.273 52.329C107.482 52.329 107.696 52.3407 107.914 52.364C108.132 52.3873 108.388 52.4261 108.683 52.4804V52.5969C108.683 52.7133 108.683 52.8181 108.683 52.9113C108.691 52.9967 108.703 53.0859 108.718 53.1791L108.73 53.2955ZM117.606 55.1935C117.606 54.5104 117.435 53.9825 117.093 53.6099C116.759 53.2295 116.288 53.0393 115.682 53.0393C115.573 53.0393 115.464 53.0471 115.355 53.0626C115.247 53.0704 115.134 53.082 115.017 53.0976C114.839 53.1286 114.683 53.1597 114.551 53.1907C114.427 53.2218 114.252 53.2761 114.026 53.3537C114.003 53.509 113.991 53.6216 113.991 53.6914C113.983 53.7768 113.976 53.8894 113.968 54.0291C113.96 54.1688 113.952 54.3435 113.945 54.5531C113.921 55.0189 113.91 55.3488 113.91 55.5429C113.91 55.9155 113.949 56.2221 114.026 56.4627C114.112 56.7034 114.248 56.9207 114.434 57.1148C114.598 57.2856 114.792 57.4176 115.017 57.5107C115.243 57.6039 115.476 57.6504 115.717 57.6504C115.997 57.6504 116.253 57.5922 116.486 57.4758C116.72 57.3516 116.918 57.1847 117.081 56.9751C117.244 56.7577 117.373 56.4977 117.466 56.1949C117.559 55.8922 117.606 55.5584 117.606 55.1935ZM118.585 55.2168C118.585 55.6826 118.519 56.1095 118.387 56.4977C118.263 56.8781 118.084 57.208 117.851 57.4874C117.618 57.7591 117.338 57.9726 117.011 58.1279C116.692 58.2754 116.339 58.3491 115.95 58.3491C115.639 58.3491 115.344 58.3025 115.064 58.2094C114.924 58.1628 114.8 58.1123 114.691 58.058C114.59 58.0037 114.493 57.9377 114.399 57.86C114.306 57.7824 114.213 57.6893 114.12 57.5806C114.034 57.4719 113.941 57.3399 113.84 57.1847L113.828 57.7203L113.793 58.8731L113.746 60.2238V60.7827H113.245H112.884H112.72C112.744 60.4878 112.763 60.2316 112.779 60.0142C112.794 59.7969 112.806 59.5795 112.814 59.3621C112.829 59.1526 112.841 58.9236 112.849 58.6751C112.864 58.4267 112.88 58.124 112.895 57.7669C112.919 57.3166 112.934 56.8781 112.942 56.4511C112.957 56.0164 112.969 55.605 112.977 55.2168C112.992 54.8209 113.004 54.4599 113.012 54.1339C113.02 53.8001 113.027 53.509 113.035 53.2606L113.047 52.6784C113.163 52.6473 113.264 52.624 113.35 52.6085C113.443 52.593 113.521 52.5775 113.583 52.5619C113.995 52.4765 114.357 52.4183 114.668 52.3873C114.986 52.3485 115.309 52.329 115.635 52.329C116.179 52.329 116.634 52.3989 117 52.5386C117.373 52.6706 117.684 52.8802 117.932 53.1674C118.134 53.4003 118.294 53.6992 118.41 54.064C118.527 54.4211 118.585 54.8054 118.585 55.2168ZM121.06 51.0365C121.045 51.3315 121.029 51.611 121.014 51.8749C120.998 52.1311 120.983 52.4222 120.967 52.7482C120.952 53.0665 120.932 53.443 120.909 53.8777C120.893 54.3047 120.874 54.8326 120.851 55.4613C120.835 55.9582 120.819 56.3851 120.804 56.7422C120.796 57.0993 120.788 57.3904 120.781 57.6155L120.769 58.221H120.629C120.559 58.221 120.493 58.221 120.431 58.221C120.376 58.2133 120.326 58.2094 120.279 58.2094C120.256 58.2094 120.213 58.2133 120.151 58.221C120.089 58.221 120.003 58.221 119.894 58.221H119.731L119.766 57.5922C119.782 57.3283 119.797 57.0217 119.813 56.6723C119.836 56.3153 119.859 55.9077 119.883 55.4497C119.906 54.9529 119.926 54.4988 119.941 54.0873C119.964 53.6759 119.98 53.2955 119.988 52.9462C120.003 52.5969 120.015 52.2669 120.023 51.9564C120.03 51.6459 120.038 51.3354 120.046 51.0249L120.058 50.4543L120.233 50.466H120.582H120.944L121.095 50.4543L121.06 51.0365ZM127.159 53.7962C127.159 54.1223 127.135 54.6618 127.089 55.4148C127.073 55.5778 127.061 55.768 127.054 55.9853C127.046 56.1949 127.034 56.4278 127.019 56.684C127.011 56.8625 127.003 57.0139 126.995 57.1381C126.995 57.2623 126.991 57.3788 126.984 57.4874C126.984 57.5961 126.984 57.7087 126.984 57.8251C126.984 57.9338 126.984 58.0658 126.984 58.221H126.844C126.782 58.2133 126.719 58.2094 126.657 58.2094C126.603 58.2094 126.544 58.2094 126.482 58.2094C126.428 58.2094 126.37 58.2133 126.307 58.221C126.245 58.221 126.179 58.221 126.109 58.221H125.969C125.985 58.0192 126 57.8445 126.016 57.697C126.031 57.5495 126.043 57.4098 126.051 57.2778C126.059 57.1459 126.066 57.0178 126.074 56.8936C126.082 56.7616 126.09 56.6141 126.097 56.4511L126.144 55.275L126.167 54.8326C126.074 54.9024 125.989 54.9645 125.911 55.0189C125.841 55.0654 125.767 55.1081 125.689 55.1469C125.619 55.178 125.538 55.209 125.445 55.2401C125.351 55.2712 125.239 55.3061 125.106 55.3449L124.523 55.5079C123.925 55.6787 123.497 55.865 123.241 56.0668C122.992 56.2609 122.868 56.5093 122.868 56.8121C122.868 57.1148 122.98 57.3477 123.206 57.5107C123.439 57.6737 123.769 57.7552 124.197 57.7552C124.298 57.7552 124.391 57.7514 124.477 57.7436C124.562 57.7358 124.648 57.7242 124.733 57.7087C124.827 57.6931 124.924 57.6737 125.025 57.6504C125.126 57.6194 125.242 57.5845 125.375 57.5457C125.343 57.6388 125.316 57.7281 125.293 57.8135C125.27 57.8911 125.242 57.9959 125.211 58.1279L125.188 58.2327C125.056 58.2559 124.939 58.2754 124.838 58.2909C124.737 58.3064 124.64 58.3181 124.547 58.3258C124.461 58.3336 124.372 58.3375 124.279 58.3375C124.185 58.3452 124.08 58.3491 123.964 58.3491C122.611 58.3491 121.935 57.8329 121.935 56.8004C121.935 56.3812 122.09 56.028 122.401 55.7408C122.51 55.6399 122.631 55.5506 122.763 55.473C122.895 55.3876 123.054 55.31 123.241 55.2401C123.427 55.1625 123.649 55.0887 123.905 55.0189C124.162 54.9412 124.477 54.8597 124.85 54.7743C125.324 54.6657 125.662 54.5298 125.864 54.3668C126.074 54.2038 126.179 53.9981 126.179 53.7496C126.179 53.4935 126.063 53.2955 125.829 53.1558C125.596 53.0083 125.27 52.9346 124.85 52.9346C124.726 52.9346 124.601 52.9384 124.477 52.9462C124.352 52.954 124.224 52.9656 124.092 52.9811C123.96 53.0044 123.843 53.0277 123.742 53.051C123.641 53.0665 123.536 53.0898 123.427 53.1209C123.326 53.1519 123.217 53.1868 123.101 53.2257C122.984 53.2645 122.848 53.3149 122.693 53.377C122.701 53.346 122.704 53.3227 122.704 53.3072C122.704 53.2839 122.708 53.2645 122.716 53.2489C122.724 53.2101 122.728 53.1713 122.728 53.1325C122.736 53.0859 122.743 53.0432 122.751 53.0044C122.767 52.9889 122.778 52.9035 122.786 52.7482L122.798 52.6318C122.907 52.6085 122.996 52.5891 123.066 52.5736C123.144 52.5581 123.21 52.5425 123.264 52.527C123.863 52.395 124.426 52.329 124.955 52.329C125.709 52.329 126.265 52.4494 126.622 52.69C126.98 52.9307 127.159 53.2994 127.159 53.7962ZM131.585 52.4804C131.569 52.6202 131.558 52.7366 131.55 52.8298C131.55 52.9229 131.55 53.0355 131.55 53.1674H129.964L129.952 53.5284L129.894 54.6695L129.859 55.1935C129.844 55.473 129.832 55.7253 129.824 55.9504C129.816 56.1755 129.812 56.3774 129.812 56.5559V56.6141C129.812 56.9712 129.871 57.2313 129.987 57.3943C130.112 57.5495 130.31 57.6272 130.582 57.6272C130.706 57.6272 130.823 57.6155 130.932 57.5922C131.048 57.5689 131.223 57.5262 131.457 57.4641C131.433 57.5806 131.414 57.6815 131.398 57.7669C131.39 57.8445 131.375 57.9493 131.352 58.0813L131.328 58.2094C131.204 58.2404 131.095 58.2637 131.002 58.2792C130.916 58.2948 130.831 58.3064 130.745 58.3142C130.668 58.3297 130.59 58.3375 130.512 58.3375C130.434 58.3452 130.349 58.3491 130.256 58.3491C129.758 58.3491 129.393 58.2443 129.16 58.0347C128.934 57.8251 128.821 57.4952 128.821 57.045C128.821 56.9828 128.821 56.9091 128.821 56.8237C128.829 56.7383 128.837 56.6374 128.845 56.521L128.915 55.2517L128.95 54.6695L129.008 53.5633L129.02 53.1674H128.262C128.277 53.0588 128.281 52.9734 128.273 52.9113C128.273 52.8414 128.281 52.7405 128.297 52.6085L128.308 52.4804H129.078C129.093 52.3252 129.101 52.2048 129.101 52.1195C129.109 52.0263 129.117 51.8905 129.125 51.7119L129.136 51.3975L129.288 51.3626C129.373 51.3393 129.443 51.3238 129.498 51.316C129.56 51.3005 129.618 51.2888 129.673 51.2811C129.727 51.2733 129.781 51.2655 129.836 51.2578C129.898 51.2423 129.968 51.2267 130.046 51.2112L130.034 51.4557L130.011 51.8283L129.999 52.201V52.4804H131.585ZM135.628 51.1064C135.425 51.0365 135.251 50.99 135.103 50.9667C134.955 50.9356 134.807 50.9201 134.66 50.9201C134.326 50.9201 134.073 51.0055 133.902 51.1763C133.809 51.2772 133.743 51.4014 133.704 51.5489C133.665 51.6886 133.645 51.9137 133.645 52.2243V52.4688H135.231C135.216 52.5619 135.204 52.659 135.196 52.7599C135.188 52.853 135.184 52.9578 135.184 53.0743V53.1674H133.645L133.634 53.5983L133.564 55.4963L133.517 57.5922L133.494 58.221H133.342C133.272 58.221 133.206 58.221 133.144 58.221C133.09 58.2133 133.035 58.2094 132.981 58.2094C132.934 58.2094 132.88 58.2133 132.818 58.221C132.763 58.221 132.697 58.221 132.619 58.221H132.468C132.483 58.0735 132.491 57.9493 132.491 57.8484C132.499 57.7397 132.507 57.6466 132.514 57.5689C132.538 57.173 132.561 56.649 132.584 55.997C132.615 55.3449 132.646 54.522 132.678 53.5284L132.689 53.1674H131.978C131.994 53.082 132.001 52.9772 132.001 52.853C132.009 52.7288 132.017 52.6007 132.025 52.4688H132.759V52.2359C132.759 52.0729 132.759 51.937 132.759 51.8283C132.767 51.7119 132.775 51.6149 132.783 51.5372C132.79 51.4519 132.802 51.3781 132.818 51.316C132.833 51.2461 132.849 51.1802 132.864 51.1181C132.95 50.8308 133.125 50.6135 133.389 50.466C133.661 50.3107 134.015 50.2331 134.45 50.2331C134.629 50.2331 134.796 50.2447 134.951 50.268C135.115 50.2836 135.324 50.3224 135.581 50.3845C135.581 50.5164 135.581 50.6251 135.581 50.7105C135.589 50.7881 135.6 50.8813 135.616 50.99L135.628 51.1064ZM140.528 55.1702C140.528 54.4793 140.365 53.9554 140.038 53.5983C139.72 53.2334 139.249 53.051 138.627 53.051C137.99 53.051 137.492 53.2683 137.135 53.7031C136.777 54.13 136.599 54.7316 136.599 55.5079C136.599 56.1678 136.766 56.6879 137.1 57.0682C137.442 57.4486 137.908 57.6388 138.499 57.6388C139.137 57.6388 139.634 57.4215 139.992 56.9867C140.349 56.552 140.528 55.9465 140.528 55.1702ZM141.519 55.1819C141.519 55.6865 141.426 56.1639 141.239 56.6141C140.773 57.7708 139.84 58.3491 138.441 58.3491C138.013 58.3491 137.625 58.2831 137.275 58.1512C136.925 58.0114 136.626 57.8173 136.377 57.5689C136.128 57.3128 135.934 57.01 135.794 56.6607C135.662 56.3114 135.596 55.9193 135.596 55.4846C135.596 54.9956 135.666 54.557 135.806 54.1688C135.953 53.7807 136.159 53.4508 136.424 53.1791C136.688 52.9074 137.011 52.6978 137.391 52.5503C137.772 52.4028 138.2 52.329 138.674 52.329C139.568 52.329 140.264 52.5813 140.761 53.0859C141.266 53.5905 141.519 54.2892 141.519 55.1819ZM146.011 53.2257C145.856 53.1868 145.739 53.1635 145.662 53.1558C145.584 53.1403 145.491 53.1325 145.382 53.1325C145.009 53.1325 144.686 53.2412 144.414 53.4585C144.15 53.6759 143.963 53.9748 143.854 54.3551C143.8 54.5337 143.761 54.7549 143.738 55.0189C143.722 55.1819 143.71 55.3682 143.703 55.5778C143.695 55.7874 143.687 56.0125 143.679 56.2531C143.672 56.486 143.664 56.7306 143.656 56.9867C143.656 57.2351 143.656 57.4797 143.656 57.7203V58.221H143.516C143.454 58.2133 143.392 58.2094 143.33 58.2094C143.275 58.2094 143.221 58.2094 143.166 58.2094C143.104 58.2094 143.042 58.2133 142.98 58.221C142.925 58.221 142.863 58.221 142.793 58.221H142.642L142.677 57.6621C142.7 57.2429 142.723 56.8198 142.747 56.3929C142.77 55.9659 142.785 55.5584 142.793 55.1702C142.809 54.7743 142.82 54.4095 142.828 54.0757C142.836 53.7341 142.84 53.4353 142.84 53.1791V52.4571C142.956 52.4649 143.046 52.4688 143.108 52.4688C143.17 52.4688 143.24 52.4688 143.318 52.4688C143.403 52.4688 143.473 52.4688 143.528 52.4688C143.59 52.4688 143.679 52.4649 143.796 52.4571L143.761 53.4003C143.8 53.3304 143.839 53.2645 143.878 53.2024C143.916 53.1403 143.955 53.082 143.994 53.0277C144.328 52.5619 144.838 52.329 145.522 52.329C145.607 52.329 145.677 52.3329 145.732 52.3407C145.786 52.3485 145.868 52.364 145.976 52.3873C145.976 52.5425 145.976 52.6667 145.976 52.7599C145.976 52.8453 145.984 52.9578 146 53.0976L146.011 53.2257ZM155.433 53.8777C155.433 53.9786 155.429 54.1028 155.421 54.2503C155.413 54.3978 155.401 54.5686 155.386 54.7627C155.37 54.9179 155.355 55.1198 155.339 55.3682C155.332 55.6088 155.32 55.8922 155.304 56.2182C155.289 56.4821 155.277 56.6995 155.269 56.8703C155.269 57.0411 155.265 57.1963 155.258 57.3361C155.258 57.4758 155.254 57.6116 155.246 57.7436C155.246 57.8756 155.246 58.0347 155.246 58.221H155.106C155.044 58.2133 154.986 58.2094 154.931 58.2094C154.885 58.2094 154.834 58.2094 154.78 58.2094C154.717 58.2094 154.655 58.2133 154.593 58.221C154.531 58.221 154.465 58.221 154.395 58.221H154.232C154.247 58.0425 154.259 57.8911 154.267 57.7669C154.274 57.6349 154.282 57.503 154.29 57.371C154.298 57.239 154.305 57.0954 154.313 56.9402C154.321 56.7771 154.333 56.5714 154.348 56.323L154.418 55.0072C154.426 54.8752 154.43 54.7472 154.43 54.623C154.438 54.4988 154.441 54.3823 154.441 54.2736C154.441 53.4974 154.053 53.1092 153.275 53.1092C153.003 53.1092 152.755 53.1713 152.529 53.2955C152.312 53.412 152.129 53.5827 151.981 53.8079C151.911 53.9243 151.849 54.0485 151.795 54.1805C151.748 54.3124 151.709 54.4793 151.678 54.6812C151.647 54.8752 151.62 55.1081 151.596 55.3798C151.581 55.6515 151.569 55.9853 151.561 56.3812L151.526 57.6504L151.503 58.221H151.363C151.301 58.2133 151.239 58.2094 151.177 58.2094C151.122 58.2094 151.068 58.2094 151.013 58.2094C150.967 58.2094 150.912 58.2133 150.85 58.221C150.796 58.221 150.73 58.221 150.652 58.221H150.5C150.508 58.0502 150.516 57.9105 150.524 57.8018C150.539 57.6854 150.547 57.5689 150.547 57.4525C150.555 57.3283 150.563 57.1886 150.57 57.0333C150.578 56.8703 150.59 56.6568 150.605 56.3929C150.629 56.0047 150.644 55.6981 150.652 55.473C150.66 55.2479 150.668 55.0693 150.675 54.9374C150.683 54.7976 150.687 54.6889 150.687 54.6113C150.687 54.5259 150.687 54.4289 150.687 54.3202C150.687 53.9243 150.59 53.6254 150.395 53.4236C150.201 53.214 149.917 53.1092 149.544 53.1092C149.195 53.1092 148.884 53.214 148.612 53.4236C148.339 53.6332 148.149 53.9204 148.04 54.2853C148.001 54.394 147.97 54.5104 147.947 54.6346C147.924 54.7588 147.904 54.9024 147.889 55.0654C147.873 55.2285 147.858 55.4186 147.842 55.636C147.826 55.8456 147.815 56.094 147.807 56.3812C147.791 56.6064 147.78 56.7965 147.772 56.9518C147.772 57.0993 147.768 57.239 147.76 57.371C147.76 57.4952 147.76 57.6233 147.76 57.7552C147.76 57.8795 147.76 58.0347 147.76 58.221H147.597C147.527 58.221 147.461 58.221 147.399 58.221C147.344 58.2133 147.298 58.2094 147.259 58.2094C147.212 58.2094 147.158 58.2133 147.096 58.221C147.041 58.221 146.975 58.221 146.897 58.221H146.734C146.758 57.9648 146.777 57.7475 146.793 57.5689C146.808 57.3826 146.82 57.1886 146.828 56.9867C146.843 56.7849 146.855 56.5443 146.863 56.2648C146.878 55.9853 146.894 55.6166 146.909 55.1586C146.925 54.7549 146.936 54.4328 146.944 54.1921C146.96 53.9437 146.967 53.7302 146.967 53.5517C146.975 53.3731 146.979 53.2062 146.979 53.051C146.987 52.888 146.991 52.69 146.991 52.4571C147.1 52.4649 147.185 52.4688 147.247 52.4688C147.309 52.4688 147.387 52.4688 147.48 52.4688C147.566 52.4688 147.64 52.4688 147.702 52.4688C147.764 52.4688 147.846 52.4649 147.947 52.4571L147.9 53.5168C148.001 53.346 148.095 53.2062 148.18 53.0976C148.359 52.8569 148.6 52.6706 148.903 52.5386C149.214 52.3989 149.544 52.329 149.894 52.329C150.267 52.329 150.605 52.4106 150.909 52.5736C151.103 52.6745 151.247 52.7909 151.34 52.9229C151.441 53.0471 151.53 53.2412 151.608 53.5051C151.647 53.443 151.682 53.3848 151.713 53.3305C151.744 53.2761 151.775 53.2295 151.806 53.1907C151.993 52.919 152.242 52.7094 152.553 52.5619C152.871 52.4067 153.229 52.329 153.625 52.329C154.185 52.329 154.624 52.4649 154.943 52.7366C155.269 53.0083 155.433 53.3887 155.433 53.8777Z" fill="#FEFEFE"/>
<path fill-rule="evenodd" clip-rule="evenodd" d="M26.1275 47.1549C26.1184 45.8947 26.0711 44.7995 25.9837 43.8712C27.3686 44.5337 28.6182 45.0014 29.731 45.2737C30.8446 45.5461 31.9192 45.6826 32.9563 45.6826C33.9532 45.6826 34.886 45.5131 35.754 45.1747C36.624 44.8364 37.2854 44.3584 37.7388 43.7412C38.1916 43.1247 38.4326 42.4183 38.4598 41.6207C38.4766 41.1575 38.4183 40.7221 38.2868 40.3178C38.154 39.9122 37.9338 39.5021 37.6222 39.0829C37.3113 38.665 36.7658 38.1009 35.9879 37.3906C35.2086 36.6816 34.1029 35.7022 32.6706 34.455L31.2397 33.2013C30.6995 32.7232 30.2104 32.2484 29.7744 31.7774C29.3391 31.3071 28.9757 30.8556 28.6862 30.4241C28.3953 29.9933 28.1738 29.6013 28.0196 29.2493C27.8654 28.8981 27.7495 28.5061 27.6718 28.0752C27.5947 27.6437 27.5629 27.2026 27.5785 26.7517C27.6186 25.6099 27.9678 24.5419 28.6279 23.5469C29.2867 22.5513 30.2551 21.755 31.5318 21.1579C32.808 20.5608 34.4766 20.262 36.5352 20.262C38.0122 20.262 39.8188 20.4606 41.9571 20.8597C41.9539 21.7143 42.0102 22.7629 42.1262 24.0049C40.1181 23.2875 38.2836 22.9298 36.622 22.9298C35.4794 22.9298 34.5161 23.1174 33.7317 23.4939C32.9485 23.8704 32.3467 24.3523 31.9276 24.9397C31.5085 25.5271 31.2876 26.1313 31.2663 26.7517C31.2533 27.123 31.2941 27.4846 31.3874 27.8365C31.482 28.1884 31.6297 28.5229 31.8311 28.8418C32.12 29.3063 32.4828 29.774 32.9181 30.2449C33.3534 30.7165 33.9584 31.291 34.7312 31.967C34.9249 32.1261 35.664 32.7491 36.9485 33.8385C38.2324 34.9259 39.1671 35.7682 39.7501 36.3659C40.3351 36.963 40.7969 37.518 41.1383 38.0284C41.4784 38.5395 41.7382 39.09 41.9163 39.6806C42.0951 40.2706 42.1735 40.911 42.1488 41.6013C42.1119 42.6635 41.8483 43.6422 41.3586 44.5369C40.8688 45.4342 40.1848 46.1671 39.3084 46.737C38.4306 47.3076 37.4629 47.7119 36.405 47.9506C35.3466 48.1906 34.2467 48.3096 33.104 48.3096C32.1867 48.3096 31.2423 48.2404 30.2706 48.1007C29.299 47.9616 27.9173 47.6465 26.1275 47.1549Z" fill="#231F20"/>
<path fill-rule="evenodd" clip-rule="evenodd" d="M50.6958 47.8719L51.4596 40.3872L52.5103 26.3935L52.6767 23.3472C52.7169 22.5781 52.7551 21.6951 52.7888 20.7001C55.7899 20.7137 58.8656 20.7195 62.0137 20.7195L68.3712 20.7001H70.4032C70.2776 21.6226 70.1856 22.5509 70.126 23.487L68.3563 23.3874C67.9184 23.3602 67.1644 23.3408 66.0949 23.3278C65.0267 23.3149 63.9655 23.3071 62.9167 23.3071C59.7802 23.3071 57.594 23.3278 56.3567 23.3673L55.6694 32.6833C57.7145 32.7234 59.5483 32.7428 61.1697 32.7428C62.9375 32.7428 65.258 32.7163 68.1309 32.6633C68.0058 33.5922 67.9132 34.5082 67.8556 35.41L60.9974 35.3511C59.6552 35.3511 57.7864 35.3783 55.3916 35.4313L54.6861 45.2649L56.7597 45.2843C60.5232 45.2843 63.0191 45.2707 64.2505 45.2442C65.4815 45.2176 66.9228 45.1588 68.5746 45.065C68.447 46.047 68.355 46.9824 68.2967 47.8719C65.0954 47.8447 62.3907 47.8318 60.1851 47.8318L50.6958 47.8719Z" fill="#231F20"/>
<path fill-rule="evenodd" clip-rule="evenodd" d="M77.7814 47.8719C78.205 44.4478 78.6125 40.2643 79.0037 35.3207C79.3956 30.3778 79.702 25.504 79.9236 20.7001C80.8408 20.7137 81.5378 20.7195 82.0172 20.7195L83.873 20.7001L82.7951 33.3108L81.9019 45.2041L85.6874 45.2235C88.5053 45.2235 90.4875 45.2151 91.6392 45.1944C92.7877 45.175 93.9025 45.1316 94.9817 45.065C94.8716 45.9066 94.7725 46.842 94.6831 47.8719C91.6677 47.8447 89.0034 47.8318 86.6921 47.8318L77.7814 47.8719Z" fill="#231F20"/>
<path fill-rule="evenodd" clip-rule="evenodd" d="M102.055 47.8719L102.513 43.2931L103.263 33.7591L103.871 24.3622C103.903 23.8188 103.929 23.2748 103.948 22.7308L103.999 20.7001L106.053 20.7195L107.989 20.7001C107.633 24.0174 107.333 27.4809 107.089 31.0913C106.675 36.8765 106.325 42.4709 106.044 47.8719L104.171 47.8318C103.931 47.8318 103.227 47.8447 102.055 47.8719Z" fill="#231F20"/>
<path fill-rule="evenodd" clip-rule="evenodd" d="M115.212 47.1549C115.203 45.8947 115.155 44.7995 115.068 43.8712C116.453 44.5337 117.702 45.0014 118.817 45.2737C119.93 45.5461 121.004 45.6826 122.04 45.6826C123.037 45.6826 123.97 45.5131 124.839 45.1747C125.708 44.8364 126.37 44.3584 126.823 43.7412C127.276 43.1247 127.516 42.4183 127.544 41.6207C127.561 41.1575 127.503 40.7221 127.371 40.3178C127.239 39.9122 127.018 39.5021 126.706 39.0829C126.395 38.665 125.851 38.1009 125.072 37.3906C124.293 36.6816 123.187 35.7022 121.756 34.455L120.325 33.2013C119.784 32.7232 119.295 32.2484 118.86 31.7774C118.425 31.3071 118.06 30.8556 117.77 30.4241C117.48 29.9933 117.258 29.6013 117.105 29.2493C116.95 28.8981 116.834 28.5061 116.757 28.0752C116.679 27.6437 116.647 27.2026 116.663 26.7517C116.703 25.6099 117.052 24.5419 117.712 23.5469C118.371 22.5513 119.339 21.755 120.616 21.1579C121.893 20.5608 123.561 20.262 125.621 20.262C127.096 20.262 128.903 20.4606 131.041 20.8597C131.039 21.7143 131.094 22.7629 131.21 24.0049C129.203 23.2875 127.368 22.9298 125.707 22.9298C124.565 22.9298 123.6 23.1174 122.817 23.4939C122.033 23.8704 121.432 24.3523 121.012 24.9397C120.593 25.5271 120.372 26.1313 120.35 26.7517C120.337 27.123 120.378 27.4846 120.472 27.8365C120.567 28.1884 120.714 28.5229 120.916 28.8418C121.204 29.3063 121.568 29.774 122.002 30.2449C122.438 30.7165 123.043 31.291 123.817 31.967C124.01 32.1261 124.749 32.7491 126.033 33.8385C127.317 34.9259 128.251 35.7682 128.834 36.3659C129.419 36.963 129.881 37.518 130.223 38.0284C130.563 38.5395 130.822 39.09 131.002 39.6806C131.18 40.2706 131.258 40.911 131.233 41.6013C131.197 42.6635 130.934 43.6422 130.443 44.5369C129.953 45.4342 129.27 46.1671 128.393 46.737C127.515 47.3076 126.547 47.7119 125.489 47.9506C124.431 48.1906 123.331 48.3096 122.189 48.3096C121.272 48.3096 120.327 48.2404 119.355 48.1007C118.383 47.9616 117.003 47.6465 115.212 47.1549Z" fill="#231F20"/>
<path fill-rule="evenodd" clip-rule="evenodd" d="M139.78 47.8719L140.543 40.3872L141.595 26.3935L141.761 23.3472C141.801 22.5781 141.839 21.6951 141.874 20.7001C144.875 20.7137 147.949 20.7195 151.099 20.7195L157.455 20.7001H159.488C159.363 21.6226 159.271 22.5509 159.211 23.487L157.44 23.3874C157.002 23.3602 156.249 23.3408 155.179 23.3278C154.11 23.3149 153.051 23.3071 152.001 23.3071C148.864 23.3071 146.678 23.3278 145.441 23.3673L144.754 32.6833C146.798 32.7234 148.633 32.7428 150.255 32.7428C152.022 32.7428 154.342 32.7163 157.216 32.6633C157.09 33.5922 156.998 34.5082 156.939 35.41L150.081 35.3511C148.739 35.3511 146.87 35.3783 144.477 35.4313L143.771 45.2649L145.844 45.2843C149.607 45.2843 152.104 45.2707 153.336 45.2442C154.565 45.2176 156.006 45.1588 157.659 45.065C157.531 46.047 157.439 46.9824 157.38 47.8719C154.18 47.8447 151.476 47.8318 149.27 47.8318L139.78 47.8719Z" fill="#231F20"/>
<path fill-rule="evenodd" clip-rule="evenodd" d="M26.1275 47.1549C26.1184 45.8947 26.0711 44.7995 25.9837 43.8712C27.3686 44.5337 28.6182 45.0014 29.731 45.2737C30.8446 45.5461 31.9192 45.6826 32.9563 45.6826C33.9532 45.6826 34.886 45.5131 35.754 45.1747C36.624 44.8364 37.2854 44.3584 37.7388 43.7412C38.1916 43.1247 38.4326 42.4183 38.4598 41.6207C38.4766 41.1575 38.4183 40.7221 38.2868 40.3178C38.154 39.9122 37.9338 39.5021 37.6222 39.0829C37.3113 38.665 36.7658 38.1009 35.9879 37.3906C35.2086 36.6816 34.1029 35.7022 32.6706 34.455L31.2397 33.2013C30.6995 32.7232 30.2104 32.2484 29.7744 31.7774C29.3391 31.3071 28.9757 30.8556 28.6862 30.4241C28.3953 29.9933 28.1738 29.6013 28.0196 29.2493C27.8654 28.8981 27.7495 28.5061 27.6718 28.0752C27.5947 27.6437 27.5629 27.2026 27.5785 26.7517C27.6186 25.6099 27.9678 24.5419 28.6279 23.5469C29.2867 22.5513 30.2551 21.755 31.5318 21.1579C32.808 20.5608 34.4766 20.262 36.5352 20.262C38.0122 20.262 39.8188 20.4606 41.9571 20.8597C41.9539 21.7143 42.0102 22.7629 42.1262 24.0049C40.1181 23.2875 38.2836 22.9298 36.622 22.9298C35.4794 22.9298 34.5161 23.1174 33.7317 23.4939C32.9485 23.8704 32.3467 24.3523 31.9276 24.9397C31.5085 25.5271 31.2876 26.1313 31.2663 26.7517C31.2533 27.123 31.2941 27.4846 31.3874 27.8365C31.482 28.1884 31.6297 28.5229 31.8311 28.8418C32.12 29.3063 32.4828 29.774 32.9181 30.2449C33.3534 30.7165 33.9584 31.291 34.7312 31.967C34.9249 32.1261 35.664 32.7491 36.9485 33.8385C38.2324 34.9259 39.1671 35.7682 39.7501 36.3659C40.3351 36.963 40.7969 37.518 41.1383 38.0284C41.4784 38.5395 41.7382 39.09 41.9163 39.6806C42.0951 40.2706 42.1735 40.911 42.1488 41.6013C42.1119 42.6635 41.8483 43.6422 41.3586 44.5369C40.8688 45.4342 40.1848 46.1671 39.3084 46.737C38.4306 47.3076 37.4629 47.7119 36.405 47.9506C35.3466 48.1906 34.2467 48.3096 33.104 48.3096C32.1867 48.3096 31.2423 48.2404 30.2706 48.1007C29.299 47.9616 27.9173 47.6465 26.1275 47.1549Z" fill="#FEFEFE"/>
<path fill-rule="evenodd" clip-rule="evenodd" d="M50.6958 47.8719L51.4596 40.3872L52.5103 26.3935L52.6767 23.3472C52.7169 22.5781 52.7551 21.6951 52.7888 20.7001C55.7899 20.7137 58.8656 20.7195 62.0137 20.7195L68.3712 20.7001H70.4032C70.2776 21.6226 70.1856 22.5509 70.126 23.487L68.3563 23.3874C67.9184 23.3602 67.1644 23.3408 66.0949 23.3278C65.0267 23.3149 63.9655 23.3071 62.9167 23.3071C59.7802 23.3071 57.594 23.3278 56.3567 23.3673L55.6694 32.6833C57.7145 32.7234 59.5483 32.7428 61.1697 32.7428C62.9375 32.7428 65.258 32.7163 68.1309 32.6633C68.0058 33.5922 67.9132 34.5082 67.8556 35.41L60.9974 35.3511C59.6552 35.3511 57.7864 35.3783 55.3916 35.4313L54.6861 45.2649L56.7597 45.2843C60.5232 45.2843 63.0191 45.2707 64.2505 45.2442C65.4815 45.2176 66.9228 45.1588 68.5746 45.065C68.447 46.047 68.355 46.9824 68.2967 47.8719C65.0954 47.8447 62.3907 47.8318 60.1851 47.8318L50.6958 47.8719Z" fill="#FEFEFE"/>
<path fill-rule="evenodd" clip-rule="evenodd" d="M77.7814 47.8719C78.205 44.4478 78.6125 40.2643 79.0037 35.3207C79.3956 30.3778 79.702 25.504 79.9236 20.7001C80.8408 20.7137 81.5378 20.7195 82.0172 20.7195L83.873 20.7001L82.7951 33.3108L81.9019 45.2041L85.6874 45.2235C88.5053 45.2235 90.4875 45.2151 91.6392 45.1944C92.7877 45.175 93.9025 45.1316 94.9817 45.065C94.8716 45.9066 94.7725 46.842 94.6831 47.8719C91.6677 47.8447 89.0034 47.8318 86.6921 47.8318L77.7814 47.8719Z" fill="#FEFEFE"/>
<path fill-rule="evenodd" clip-rule="evenodd" d="M102.055 47.8719L102.513 43.2931L103.263 33.7591L103.871 24.3622C103.903 23.8188 103.929 23.2748 103.948 22.7308L103.999 20.7001L106.053 20.7195L107.989 20.7001C107.633 24.0174 107.333 27.4809 107.089 31.0913C106.675 36.8765 106.325 42.4709 106.044 47.8719L104.171 47.8318C103.931 47.8318 103.227 47.8447 102.055 47.8719Z" fill="#FEFEFE"/>
<path fill-rule="evenodd" clip-rule="evenodd" d="M115.212 47.1549C115.203 45.8947 115.155 44.7995 115.068 43.8712C116.453 44.5337 117.702 45.0014 118.817 45.2737C119.93 45.5461 121.004 45.6826 122.04 45.6826C123.037 45.6826 123.97 45.5131 124.839 45.1747C125.708 44.8364 126.37 44.3584 126.823 43.7412C127.276 43.1247 127.516 42.4183 127.544 41.6207C127.561 41.1575 127.503 40.7221 127.371 40.3178C127.239 39.9122 127.018 39.5021 126.706 39.0829C126.395 38.665 125.851 38.1009 125.072 37.3906C124.293 36.6816 123.187 35.7022 121.756 34.455L120.325 33.2013C119.784 32.7232 119.295 32.2484 118.86 31.7774C118.425 31.3071 118.06 30.8556 117.77 30.4241C117.48 29.9933 117.258 29.6013 117.105 29.2493C116.95 28.8981 116.834 28.5061 116.757 28.0752C116.679 27.6437 116.647 27.2026 116.663 26.7517C116.703 25.6099 117.052 24.5419 117.712 23.5469C118.371 22.5513 119.339 21.755 120.616 21.1579C121.893 20.5608 123.561 20.262 125.621 20.262C127.096 20.262 128.903 20.4606 131.041 20.8597C131.039 21.7143 131.094 22.7629 131.21 24.0049C129.203 23.2875 127.368 22.9298 125.707 22.9298C124.565 22.9298 123.6 23.1174 122.817 23.4939C122.033 23.8704 121.432 24.3523 121.012 24.9397C120.593 25.5271 120.372 26.1313 120.35 26.7517C120.337 27.123 120.378 27.4846 120.472 27.8365C120.567 28.1884 120.714 28.5229 120.916 28.8418C121.204 29.3063 121.568 29.774 122.002 30.2449C122.438 30.7165 123.043 31.291 123.817 31.967C124.01 32.1261 124.749 32.7491 126.033 33.8385C127.317 34.9259 128.251 35.7682 128.834 36.3659C129.419 36.963 129.881 37.518 130.223 38.0284C130.563 38.5395 130.822 39.09 131.002 39.6806C131.18 40.2706 131.258 40.911 131.233 41.6013C131.197 42.6635 130.934 43.6422 130.443 44.5369C129.953 45.4342 129.27 46.1671 128.393 46.737C127.515 47.3076 126.547 47.7119 125.489 47.9506C124.431 48.1906 123.331 48.3096 122.189 48.3096C121.272 48.3096 120.327 48.2404 119.355 48.1007C118.383 47.9616 117.003 47.6465 115.212 47.1549Z" fill="#FEFEFE"/>
<path fill-rule="evenodd" clip-rule="evenodd" d="M139.78 47.8719L140.543 40.3872L141.595 26.3935L141.761 23.3472C141.801 22.5781 141.839 21.6951 141.874 20.7001C144.875 20.7137 147.949 20.7195 151.099 20.7195L157.455 20.7001H159.488C159.363 21.6226 159.271 22.5509 159.211 23.487L157.44 23.3874C157.002 23.3602 156.249 23.3408 155.179 23.3278C154.11 23.3149 153.051 23.3071 152.001 23.3071C148.864 23.3071 146.678 23.3278 145.441 23.3673L144.754 32.6833C146.798 32.7234 148.633 32.7428 150.255 32.7428C152.022 32.7428 154.342 32.7163 157.216 32.6633C157.09 33.5922 156.998 34.5082 156.939 35.41L150.081 35.3511C148.739 35.3511 146.87 35.3783 144.477 35.4313L143.771 45.2649L145.844 45.2843C149.607 45.2843 152.104 45.2707 153.336 45.2442C154.565 45.2176 156.006 45.1588 157.659 45.065C157.531 46.047 157.439 46.9824 157.38 47.8719C154.18 47.8447 151.476 47.8318 149.27 47.8318L139.78 47.8719Z" fill="#FEFEFE"/>
<path fill-rule="evenodd" clip-rule="evenodd" d="M36.2243 66.6891C34.088 66.6891 32.0015 66.4775 29.9792 66.0855C29.9636 65.9432 29.9513 65.8099 29.9306 65.6553C29.9131 65.5234 29.8839 65.372 29.8613 65.2316C30.237 65.2329 30.6075 65.242 30.9916 65.2284C32.2606 65.1805 33.5238 65.0576 34.7461 64.8428C35.9678 64.6305 37.15 64.3407 38.2597 63.9888C39.2054 63.6899 40.0844 63.3393 40.9116 62.9712C41.1908 63.6589 41.4448 64.3349 41.6559 64.9871C41.7868 65.3914 41.9008 65.7841 42.0057 66.1703C40.1285 66.5047 38.1988 66.6891 36.2243 66.6891ZM25.6767 64.9379C26.8472 65.1035 28.0941 65.207 29.3962 65.2329C29.413 65.2885 29.4331 65.3481 29.4493 65.403C29.5128 65.6198 29.5672 65.8229 29.6184 66.0202C28.271 65.7433 26.9573 65.3752 25.6767 64.9379ZM20.6266 62.7299C20.1194 62.4537 19.6219 62.162 19.1309 61.8598C19.127 61.8437 19.1218 61.8269 19.118 61.8107C20.2574 62.0255 21.5134 62.193 22.8906 62.2726C24.5139 62.356 26.2914 62.3049 28.1602 62.0811C28.2755 62.3204 28.3837 62.5566 28.486 62.7888C28.615 63.0793 28.7303 63.3607 28.8391 63.6375C27.1549 63.6084 25.5141 63.4849 23.9788 63.2843C22.7895 63.1317 21.6695 62.9389 20.6266 62.7299ZM18.2117 59.3525C18.8841 59.3486 19.5876 59.3188 20.3461 59.2567C20.8255 59.2024 21.3249 59.1597 21.8328 59.0743C22.088 59.0348 22.3471 58.9973 22.6082 58.952C22.8692 58.9009 23.1348 58.8485 23.4023 58.7955C23.5364 58.769 23.6711 58.7418 23.8072 58.7133C23.9419 58.6816 24.0773 58.6486 24.214 58.6163C24.4867 58.549 24.7633 58.4811 25.0425 58.4125C25.3171 58.3368 25.5937 58.254 25.8742 58.1732C26.3983 58.9384 26.8705 59.694 27.2903 60.4308C26.8517 60.4878 26.4132 60.5453 25.9805 60.5835C25.4111 60.6489 24.8456 60.6754 24.2911 60.7181C24.0132 60.7368 23.7385 60.7407 23.4658 60.753C23.1924 60.7653 22.9223 60.7782 22.6548 60.7763C22.3873 60.7795 22.1223 60.7828 21.8606 60.786C21.6002 60.7815 21.3411 60.7769 21.0872 60.7724C20.9596 60.7705 20.832 60.7705 20.7069 60.7653C20.5819 60.7601 20.4569 60.7536 20.3332 60.7478C20.0857 60.7349 19.8415 60.7304 19.6012 60.7122C19.3097 60.6941 19.0363 60.667 18.7571 60.643C18.6036 60.2225 18.4294 59.7943 18.2117 59.3525ZM15.6174 55.6147C16.3481 55.1379 17.1772 54.5867 18.0971 53.958C18.9217 53.3926 19.8201 52.7638 20.775 52.0761C22.1988 53.5291 23.5248 55.0228 24.67 56.5158C24.6733 56.5197 24.6758 56.5242 24.6791 56.5281C24.5651 56.5695 24.4511 56.6102 24.3358 56.6458C24.0611 56.7351 23.7884 56.8244 23.5183 56.9117L23.3155 56.9783L23.1134 57.0366C22.978 57.0767 22.8439 57.1155 22.7105 57.1549C22.178 57.3199 21.6494 57.446 21.1371 57.5832C20.8792 57.6434 20.6247 57.7022 20.374 57.7604C20.249 57.7883 20.1246 57.82 19.9996 57.8458C19.8758 57.8704 19.7521 57.8943 19.6303 57.9183C18.9191 58.0671 18.2506 58.1699 17.6067 58.2566C17.0749 57.3781 16.4122 56.4867 15.6174 55.6147ZM17.049 60.4619C16.4958 60.0602 15.951 59.6455 15.4243 59.2095C15.8104 59.2567 16.2334 59.2917 16.6752 59.3182C16.6882 59.3356 16.7024 59.3531 16.7154 59.3706C16.9848 59.751 17.2245 60.1307 17.4486 60.5091C17.3165 60.4929 17.1772 60.4787 17.049 60.4619ZM13.1837 57.1763C13.4823 56.9861 13.8464 56.7558 14.2668 56.4873C14.8912 57.1187 15.4794 57.7714 16.0086 58.4332C15.9018 58.4423 15.7845 58.4546 15.6809 58.4636C15.3032 58.4837 14.9482 58.5076 14.6179 58.5121C14.1282 58.0794 13.6469 57.6369 13.1837 57.1763ZM11.9853 55.9168C12.1214 55.5817 12.2762 55.2117 12.4511 54.8099C12.7737 55.0829 13.0969 55.3676 13.4201 55.6658C13.6035 55.8366 13.7796 56.0132 13.9578 56.1878C13.5976 56.5119 13.2893 56.7907 13.0347 57.0236C12.6765 56.662 12.326 56.2939 11.9853 55.9168ZM11.8707 54.6928C11.7936 54.9975 11.7269 55.2776 11.664 55.5455C11.3706 55.211 11.0823 54.8714 10.8031 54.5253C10.7733 54.1915 10.7468 53.837 10.7235 53.4644C11.129 53.7535 11.5384 54.0692 11.9484 54.4017C11.9225 54.4981 11.8946 54.5997 11.8707 54.6928ZM10.6522 49.7156C10.6632 49.1166 10.6956 48.4917 10.7325 47.8422C10.7798 47.1933 10.8297 46.5199 10.9081 45.8258C10.9735 45.2132 11.0609 44.5766 11.1588 43.9323C11.5442 44.2027 11.9316 44.4744 12.3286 44.7655C13.1111 45.3413 13.9196 45.97 14.7377 46.6266C14.6937 46.7263 14.6477 46.8278 14.6043 46.9262C14.4669 47.2289 14.34 47.5317 14.2162 47.8299C14.0938 48.1287 13.9675 48.4205 13.8535 48.7116C13.3897 49.8734 12.9984 50.9719 12.6668 51.9765C12.5748 52.2598 12.4893 52.5341 12.4077 52.802C11.8305 52.4028 11.2417 52.0567 10.6516 51.743C10.6379 51.1045 10.6354 50.4311 10.6522 49.7156ZM9.32427 52.5471C9.44734 52.6208 9.56847 52.6875 9.69285 52.767C9.79714 52.8324 9.90337 52.9087 10.0083 52.9779C10.0459 53.2108 10.0835 53.4404 10.1223 53.6597C9.84767 53.2955 9.58337 52.9229 9.32427 52.5471ZM8.52167 50.433C8.24637 49.1948 7.97884 47.7988 7.75536 46.2586C7.54354 44.7907 7.38289 43.1864 7.29609 41.4708C8.07665 41.9146 8.89738 42.4166 9.75827 42.982C9.45317 45.9041 9.50758 48.5952 9.73301 50.8535C9.74856 51.0087 9.76734 51.1536 9.78418 51.3044C9.39228 51.1265 9.00232 50.9693 8.61625 50.8354C8.58451 50.7008 8.55277 50.5714 8.52167 50.433ZM4.11746 39.9267C4.7024 40.1486 5.33333 40.4326 6.00702 40.7741C6.05042 41.2988 6.10159 41.8137 6.1599 42.3183C6.40345 44.323 6.75649 46.1706 7.1607 47.8247C7.35115 48.6023 7.55001 49.3339 7.75277 50.0242C6.0148 46.9346 4.77042 43.5338 4.11746 39.9267ZM3.58629 34.0988C3.58629 31.9 3.80783 29.7529 4.22305 27.6763C4.58256 27.7643 4.95244 27.8652 5.33592 27.9907C5.84248 28.1563 6.37107 28.3575 6.91455 28.5839C6.89058 28.6752 6.86532 28.767 6.84524 28.8589C6.77722 29.1571 6.70985 29.4547 6.64184 29.7516C6.57576 30.0479 6.52524 30.3468 6.46694 30.6424C6.43843 30.7912 6.41123 30.938 6.38273 31.0868L6.31406 31.5299C6.27001 31.8256 6.21819 32.1193 6.18256 32.4136C6.0258 33.5877 5.93835 34.7476 5.88912 35.8803C5.84637 37.015 5.85933 38.1231 5.90273 39.1983C5.91374 39.4221 5.93252 39.6375 5.94677 39.8575C5.25884 39.6149 4.60783 39.4247 4.00475 39.294C3.73269 37.6017 3.58629 35.8674 3.58629 34.0988ZM8.75422 16.5044C9.58791 16.9281 10.5803 17.4553 11.7087 18.0841C11.5921 18.253 11.4762 18.4218 11.3583 18.5919C11.0065 19.0913 10.6937 19.6237 10.3646 20.1542C10.202 20.4207 10.0569 20.6995 9.90078 20.9745C9.8237 21.1123 9.74726 21.2507 9.67018 21.3898C9.59244 21.5276 9.52507 21.6725 9.45252 21.8148C9.31001 22.1001 9.16686 22.3854 9.02499 22.67C8.89414 22.9598 8.76329 23.2503 8.63374 23.5394C8.499 23.8266 8.38499 24.1216 8.26775 24.4147L8.0922 24.8539L8.0054 25.0732L7.92637 25.2958C7.82208 25.592 7.71714 25.8877 7.6135 26.182C7.51439 26.4783 7.42629 26.7772 7.33301 27.0741C7.28831 27.2216 7.23973 27.3697 7.19763 27.5185C7.18014 27.5858 7.162 27.6524 7.14321 27.7197C6.1573 27.4105 5.22515 27.1983 4.35455 27.0728C5.19471 23.2548 6.70402 19.691 8.75422 16.5044ZM16.453 8.16843C16.534 8.19366 16.6098 8.215 16.6927 8.24217C17.2096 8.39031 17.7589 8.60703 18.351 8.81274C18.4242 8.83991 18.5006 8.86255 18.5745 8.89295C18.6483 8.92401 18.7228 8.95506 18.7992 8.98546C18.9495 9.04692 19.1024 9.10837 19.2585 9.17177C19.414 9.23387 19.572 9.29597 19.732 9.36002C19.8124 9.39172 19.8933 9.42341 19.9743 9.45511C20.0553 9.4894 20.135 9.52756 20.2166 9.5625C20.2541 9.57932 20.2937 9.59614 20.3312 9.6136C20.0397 9.82126 19.7482 10.0289 19.4503 10.2424C19.2443 10.3841 19.0493 10.5464 18.8478 10.701C18.647 10.8582 18.4449 11.0161 18.2409 11.1759C16.6305 12.4723 15.0182 13.9802 13.5128 15.7469C13.3294 15.972 13.1448 16.1971 12.9589 16.4248C12.865 16.5387 12.773 16.6525 12.6791 16.767C12.5877 16.8835 12.5009 17.0038 12.4109 17.1228C12.374 17.1726 12.3364 17.2231 12.2988 17.2735C12.2567 17.2567 12.2094 17.2354 12.1673 17.2179C10.9852 16.7405 9.93317 16.3601 9.0386 16.0619C11.0558 13.0364 13.5652 10.3679 16.453 8.16843ZM25.4629 3.32508C26.4177 3.58772 27.4289 3.89629 28.4828 4.26308C28.8559 4.39246 29.2265 4.52637 29.595 4.66351C28.922 4.93651 28.2218 5.23408 27.4943 5.56465C27.3181 5.64292 27.1406 5.72314 26.9599 5.804C26.7837 5.89004 26.6036 5.97802 26.4235 6.06664C26.0621 6.24454 25.6941 6.42696 25.3184 6.61263C24.9466 6.8067 24.5735 7.01436 24.1887 7.22136C23.9976 7.32552 23.8046 7.43031 23.609 7.5377C23.4185 7.65026 23.2261 7.76541 23.0324 7.8812C22.8375 7.99635 22.6412 8.11409 22.4443 8.23247C22.2707 8.33468 22.0964 8.44142 21.926 8.55269C21.8509 8.52746 21.7745 8.50029 21.7 8.47506C21.3068 8.34309 20.9207 8.21565 20.5424 8.09468C19.4548 7.7874 18.4261 7.56099 17.4875 7.41543C19.9231 5.70632 22.6017 4.32325 25.4629 3.32508ZM24.4634 11.5672C24.6538 11.6617 24.8443 11.7568 25.0341 11.8506C25.2239 11.945 25.4156 12.0343 25.5996 12.1397C25.9707 12.3422 26.3419 12.5408 26.7099 12.7355C26.8951 12.8319 27.0784 12.9283 27.2605 13.0234C27.3518 13.0706 27.4425 13.1179 27.5338 13.1651C27.6252 13.2117 27.7113 13.266 27.8007 13.3152C27.8791 13.3598 27.9542 13.4018 28.0326 13.4458C27.0616 14.1296 25.9805 14.9324 24.7905 15.9105C23.8765 16.6758 22.8951 17.5258 21.8995 18.5059C21.1649 19.2227 20.4103 19.9996 19.6569 20.847C19.5235 20.7726 19.3894 20.6976 19.2572 20.6238C18.9333 20.4459 18.6133 20.2693 18.2979 20.0953C17.9792 19.9284 17.6637 19.7635 17.3521 19.6011C17.196 19.5202 17.0418 19.4407 16.887 19.3611C16.7328 19.2848 16.5787 19.2091 16.4265 19.1327C16.1201 18.9833 15.8195 18.8332 15.5222 18.6922C14.9735 18.4334 14.4449 18.1934 13.9273 17.9657L14.009 17.8525L14.1482 17.6759L14.4242 17.3259L14.6988 16.9766C14.7895 16.8602 14.8802 16.7424 14.978 16.6325C16.4938 14.8166 18.1599 13.1871 19.8817 11.7594C20.5165 11.2321 21.1591 10.7411 21.8023 10.267C21.9539 10.3407 22.1061 10.4138 22.2603 10.4882C22.6133 10.6577 22.9767 10.8278 23.3473 10.9986C23.7133 11.1843 24.0851 11.3745 24.4634 11.5672ZM13.2899 30.4095C11.7223 29.5562 10.2039 28.8479 8.76005 28.2922C8.79633 28.1628 8.83196 28.0334 8.87212 27.9053L9.00491 27.4997C9.09625 27.2287 9.17787 26.9531 9.27698 26.6827C9.37673 26.4123 9.47714 26.1406 9.5769 25.867L9.65269 25.6619L9.73625 25.4601C9.79196 25.3242 9.84702 25.189 9.90337 25.0525C10.0141 24.7808 10.123 24.5059 10.2506 24.2381C10.373 23.9683 10.4961 23.6966 10.6205 23.4243C10.7552 23.1571 10.8899 22.888 11.0253 22.6182C11.094 22.4843 11.1575 22.3465 11.2307 22.2152L11.4503 21.8193L11.6692 21.4228C11.7418 21.2908 11.8117 21.1575 11.8927 21.0307C12.0494 20.7726 12.2049 20.5158 12.3604 20.259L12.4776 20.0656L12.6007 19.878L12.8501 19.5028L13.0982 19.1282L13.218 18.9471C14.8005 19.8663 16.5728 20.9512 18.4987 22.2146C16.6435 24.4884 14.8096 27.2054 13.2899 30.4095ZM11.081 36.1973C10.5589 38.0125 10.1754 39.8115 9.93252 41.5491C9.92864 41.5756 9.92605 41.6015 9.92216 41.6287C9.00038 41.1429 8.10645 40.7185 7.25463 40.3634C7.25269 40.3058 7.25074 40.2476 7.24945 40.19C7.24815 40.0735 7.2475 39.9571 7.24686 39.84C7.24426 39.6065 7.24167 39.3704 7.23973 39.1323C7.24297 38.8949 7.2475 38.6555 7.25009 38.4142C7.25269 38.2933 7.25398 38.173 7.25657 38.0507C7.26046 37.9291 7.26629 37.8074 7.27082 37.6858C7.28054 37.4407 7.2909 37.1942 7.30062 36.9458C7.31746 36.7 7.33366 36.4496 7.35115 36.1986C7.35892 36.0731 7.36799 35.9476 7.37641 35.8208C7.38807 35.6953 7.40103 35.5685 7.41204 35.4417C7.4956 34.4248 7.64329 33.3878 7.81754 32.3321C7.86678 32.0688 7.91471 31.8036 7.96394 31.5377C8.00928 31.2705 8.07665 31.0066 8.13171 30.7388C8.22758 30.2575 8.35649 29.7781 8.47762 29.2936C8.67584 29.3913 8.87147 29.4844 9.07293 29.5879C10.2286 30.1824 11.4451 30.8934 12.705 31.6981C12.0631 33.1854 11.5228 34.6972 11.081 36.1973ZM17.8425 35.3408C18.5686 35.9056 19.3058 36.4988 20.0482 37.1153C20.0073 37.1767 19.9652 37.2317 19.9244 37.2932C19.4963 37.9452 19.0597 38.587 18.6626 39.2455C18.4598 39.5728 18.2603 39.8989 18.0614 40.223C17.8703 40.5522 17.6805 40.8796 17.4927 41.2043C17.3988 41.3673 17.3061 41.5291 17.2122 41.6908C17.1241 41.8551 17.0341 42.0181 16.9453 42.1805C16.7698 42.5065 16.5949 42.8293 16.4219 43.1496C16.2561 43.4736 16.0922 43.7952 15.9296 44.1147C15.8493 44.2739 15.769 44.4317 15.6893 44.5896C15.6135 44.7493 15.5364 44.9078 15.4613 45.0657C15.4561 45.0773 15.4509 45.0877 15.4457 45.0993C14.592 44.4789 13.7395 43.8851 12.8954 43.3507C12.398 43.0357 11.9043 42.7394 11.4153 42.4548C11.4794 42.1087 11.5312 41.7723 11.6038 41.4191C11.9264 39.8782 12.3448 38.2713 12.8805 36.6236C13.2958 35.3609 13.7745 34.0723 14.3316 32.7726C15.4723 33.5547 16.6441 34.4119 17.8425 35.3408ZM18.7487 50.0895C19.0843 50.402 19.4075 50.7228 19.7346 51.0411C18.66 51.9933 17.6546 52.886 16.762 53.6804C16.1764 54.2018 15.6355 54.6838 15.1465 55.1217C14.9392 54.9102 14.7358 54.698 14.5123 54.4904C14.0621 54.0738 13.5918 53.6921 13.1144 53.3285C13.3716 52.7735 13.6546 52.179 13.9669 51.547C14.5434 50.3728 15.23 49.0661 16.0028 47.6662C16.9097 48.4283 17.8256 49.2285 18.7487 50.0895ZM27.6018 57.6104C27.6757 57.5851 27.7482 57.5599 27.8208 57.5347C27.8933 57.5069 27.9652 57.4784 28.0378 57.4506C28.1829 57.3937 28.3286 57.3367 28.4744 57.2798C28.7659 57.1634 29.0639 57.0527 29.358 56.9253C29.6507 56.7959 29.9455 56.6646 30.2428 56.5326C32.1473 55.6671 33.9448 54.6359 35.5824 53.5536C35.8584 53.9405 36.1298 54.3267 36.3921 54.7122C37.0924 55.7428 37.7356 56.7687 38.3303 57.7844C35.8959 58.6279 32.9343 59.4974 29.4629 60.1152C29.1066 60.1721 28.7542 60.2238 28.4012 60.2769C28.0566 59.4734 27.6413 58.6312 27.1555 57.763C27.3039 57.7119 27.4516 57.6621 27.6018 57.6104ZM39.563 60.0207C39.8998 60.6793 40.201 61.3262 40.4835 61.9646C37.9312 62.8056 34.726 63.4997 30.9346 63.6259C30.4676 63.6414 30.0044 63.6421 29.5426 63.6421C29.4117 63.1161 29.2388 62.5475 29.038 61.9569C29.2815 61.9207 29.5192 61.8961 29.7654 61.8534C32.2237 61.4206 34.6023 60.7038 36.7121 59.8577C36.9758 59.7522 37.2362 59.6462 37.4946 59.5433C37.7505 59.4366 37.998 59.3175 38.2454 59.2076C38.4851 59.0976 38.7222 58.9896 38.956 58.8822C39.1652 59.2632 39.3699 59.6436 39.563 60.0207ZM42.8154 66.015C42.6211 64.9224 42.3406 63.7443 41.9403 62.4951C42.6503 62.1387 43.3026 61.7699 43.8875 61.4077C45.3806 60.4897 46.4443 59.6048 47.0758 59.0529C47.6958 58.4843 47.9031 58.2624 47.5876 58.5037C47.4289 58.6234 47.2048 58.7838 46.9126 58.9727C46.6166 59.1558 46.2622 59.3822 45.8308 59.6183C44.9771 60.1003 43.8512 60.6702 42.4592 61.2434C42.1949 61.3514 41.9105 61.4581 41.6261 61.5649C41.2485 60.4942 40.7911 59.3796 40.2548 58.2307C40.4964 58.1052 40.7452 57.9765 40.9777 57.8575C41.3852 57.622 41.7758 57.3975 42.1482 57.1841C42.3329 57.076 42.5129 56.9712 42.6885 56.8684C42.8588 56.759 43.0247 56.653 43.1853 56.5507C43.504 56.3444 43.8027 56.1516 44.0786 55.9737C44.2146 55.8831 44.3481 55.8003 44.4699 55.713C44.591 55.6257 44.7076 55.5429 44.8171 55.4633C45.0354 55.3048 45.2277 55.1644 45.3955 55.0415C46.0588 54.5505 46.2849 54.3519 45.9487 54.5518C45.6106 54.7511 44.992 55.0616 44.1181 55.4769C43.675 55.671 43.1691 55.8935 42.6023 56.1419C42.3225 56.2719 42.0148 56.3838 41.6987 56.5132C41.3832 56.6413 41.0522 56.7752 40.7056 56.9149C40.4122 57.0275 40.1006 57.1446 39.7852 57.2617C39.0985 55.8857 38.3056 54.4684 37.3871 53.0219C37.2841 52.8589 37.172 52.6933 37.0658 52.5296C37.9137 51.9118 38.7254 51.3044 39.4522 50.6944C40.282 50.0339 41.0082 49.3604 41.6741 48.7653C41.8418 48.6178 41.9986 48.4664 42.1495 48.3189C42.3018 48.1714 42.4488 48.0278 42.5907 47.8894C42.8744 47.6119 43.1387 47.3505 43.3822 47.1112C43.8609 46.6234 44.2418 46.199 44.5327 45.8808C45.1105 45.2403 45.2997 44.9861 44.9926 45.2572C44.6869 45.5276 44.1026 45.9565 43.2838 46.549C42.4456 47.1176 41.38 47.8616 40.0631 48.6974C39.8998 48.8041 39.7333 48.9128 39.563 49.0241C39.3939 49.134 39.2138 49.2395 39.0357 49.3514C38.6781 49.5739 38.3069 49.8042 37.9222 50.0449C37.7324 50.1678 37.5316 50.281 37.3301 50.4C37.1286 50.519 36.9246 50.64 36.7173 50.7636C36.5217 50.8807 36.3222 51.0003 36.1207 51.1207C35.7709 50.6154 35.4023 50.1063 35.0253 49.5966C34.3957 49.6684 33.7537 49.7072 33.104 49.7072C32.9414 49.7072 32.7724 49.6929 32.6078 49.6891C33.2517 50.4718 33.8814 51.2578 34.478 52.0464C32.9395 52.9022 31.2482 53.7833 29.3761 54.6353C29.0924 54.7634 28.8106 54.8914 28.5288 55.0189C28.2477 55.1437 27.9614 55.2569 27.6809 55.3773C27.1536 55.6088 26.6218 55.8074 26.0977 56.0125C25.9209 55.7402 25.7375 55.4665 25.5465 55.1916C24.602 53.8299 23.4807 52.4358 22.1897 51.043C23.2592 50.2506 24.3908 49.3844 25.5665 48.4503L24.7361 48.2219L24.7283 47.1649C24.727 46.9818 24.7231 46.8091 24.7199 46.6325C23.4464 47.7555 22.2143 48.8455 21.0574 49.8696C20.6998 49.5118 20.3358 49.1554 19.9555 48.8009C18.945 47.8577 17.9021 46.9818 16.8507 46.1576C16.9596 45.9674 17.0606 45.785 17.172 45.5922C18.452 43.3883 19.951 40.9947 21.6462 38.4725C22.9703 39.6227 24.3131 40.8582 25.6605 42.1669L26.5887 42.6107C27.8797 43.2285 29.049 43.6684 30.064 43.9168C30.3024 43.975 30.5401 44.0255 30.7753 44.0701C32.5728 42.469 34.2959 40.8304 35.8856 39.2267C35.6712 39.0087 35.3978 38.7455 35.0441 38.4227C34.8971 38.2894 34.7273 38.1367 34.5589 37.9847C32.9175 39.4247 31.1186 41.0038 29.1669 42.7161C29.1461 42.6948 29.126 42.6728 29.1053 42.6514C27.0609 40.5522 24.9207 38.6103 22.7591 36.852C24.2548 34.7056 25.7868 32.6575 27.2611 30.7789C27.0551 30.4425 26.8718 30.1145 26.7377 29.8105C26.6444 29.5976 26.5635 29.3706 26.4922 29.1351C26.0517 29.5951 25.6067 30.0679 25.1507 30.5783C23.8499 32.0423 22.4896 33.7009 21.1358 35.5659C20.2451 34.8828 19.3531 34.232 18.4663 33.6168C17.2886 32.8004 16.1181 32.0533 14.9651 31.3676C16.3481 28.3983 18.0608 25.6147 19.8856 23.1448C21.7809 24.4354 23.7819 25.8825 25.8554 27.5004C25.9818 27.5994 26.1048 27.7016 26.2299 27.8018C26.191 27.4376 26.1677 27.0709 26.1806 26.7028C26.1975 26.2176 26.2778 25.746 26.386 25.2802C26.3121 25.2239 26.2383 25.1677 26.1651 25.112C26.0018 24.9878 25.8399 24.8623 25.6747 24.742C25.5082 24.6243 25.3431 24.5052 25.1779 24.3869C24.8469 24.1514 24.5165 23.9179 24.1887 23.685C23.8545 23.4618 23.5235 23.2386 23.1931 23.018C23.0273 22.908 22.8627 22.7987 22.6982 22.69C22.5317 22.5846 22.3652 22.4804 22.2001 22.3763C21.8684 22.1693 21.5393 21.9636 21.2135 21.7598C21.1526 21.7236 21.0937 21.6886 21.0328 21.6531C21.9358 20.5197 22.8517 19.4601 23.7508 18.4878C24.0196 18.2044 24.2749 17.9172 24.5405 17.6487C24.8048 17.3796 25.0639 17.1144 25.3171 16.855C25.5743 16.5975 25.8321 16.3524 26.0802 16.1091C26.2039 15.9869 26.327 15.8665 26.4482 15.7482C26.5725 15.6324 26.6956 15.5179 26.8174 15.4053C27.4541 14.8076 28.0546 14.2674 28.615 13.7758C28.6914 13.8185 28.7704 13.8631 28.8456 13.9058C29.1915 14.0953 29.5277 14.281 29.8567 14.4628C30.1845 14.6478 30.4941 14.8418 30.8018 15.0191C31.4127 15.3801 31.9873 15.7106 32.5126 16.0069C34.557 17.2729 35.8156 17.9554 35.3719 17.6177C35.1503 17.4495 34.7928 17.1092 34.294 16.6273C34.0446 16.386 33.7576 16.1104 33.4376 15.8018C33.275 15.6492 33.1105 15.4803 32.9246 15.3199C32.738 15.1588 32.5424 14.99 32.339 14.814C31.9296 14.4641 31.482 14.0863 30.9942 13.6852C30.8711 13.5862 30.75 13.4808 30.6198 13.3844C30.4883 13.2873 30.3542 13.189 30.2188 13.0894C30.0783 12.9859 29.9267 12.8779 29.7809 12.7724C30.4138 12.2387 30.9625 11.7904 31.3887 11.4404C32.3986 10.6338 32.7529 10.3155 32.2444 10.6668C31.9911 10.8421 31.6316 11.0711 31.1724 11.3564C30.9437 11.4993 30.6956 11.6649 30.4197 11.8409C30.1463 12.0194 29.8431 12.2057 29.527 12.4199C29.4894 12.4451 29.4441 12.4761 29.4059 12.502C29.3942 12.4942 29.3832 12.4865 29.3722 12.4781C29.0801 12.2698 28.7775 12.0576 28.4647 11.8409C28.146 11.6345 27.8104 11.4327 27.4677 11.2237C27.1251 11.0154 26.7714 10.8052 26.408 10.5924C26.2279 10.4824 26.0355 10.3886 25.8438 10.289C25.6514 10.1906 25.4564 10.0923 25.2595 9.99204C24.8631 9.79538 24.4724 9.59484 24.0767 9.41371C23.8512 9.31797 23.6303 9.22805 23.4075 9.1349C23.9743 8.75387 24.5398 8.38449 25.0995 8.04034C26.8239 6.98201 28.4912 6.07893 30.0401 5.33694C30.2389 5.2399 30.4294 5.15128 30.6237 5.05877C31.3434 5.34341 32.043 5.6371 32.7095 5.93467C32.8741 6.00648 33.0373 6.07958 33.1986 6.15009C33.3573 6.22513 33.5154 6.29888 33.6708 6.37263C33.9811 6.52012 34.2894 6.65533 34.5777 6.80476C34.8699 6.94773 35.1523 7.08681 35.4237 7.22072C35.6919 7.36045 35.949 7.49436 36.1939 7.62115C37.1733 8.13285 37.9442 8.55915 38.4197 8.81662C38.8977 9.0715 39.0862 9.14654 38.8789 8.99517C38.671 8.84508 38.3374 8.53716 37.8639 8.10503C37.6222 7.89543 37.345 7.65544 37.0354 7.38697C36.7231 7.11915 36.3636 6.84099 35.9724 6.53048C35.1756 5.93273 34.2214 5.24831 33.0613 4.59494C32.852 4.47527 32.6292 4.35753 32.407 4.2398C34.4346 3.34513 36.1175 2.71635 37.2601 2.28422C38.8323 1.71559 39.4004 1.484 38.636 1.71818C38.2538 1.83591 37.7226 1.98405 37.0477 2.16648C36.7076 2.25187 36.3403 2.37025 35.9348 2.48799C35.528 2.60702 35.0875 2.7364 34.6127 2.87613C33.7447 3.15236 32.7575 3.4771 31.6763 3.86847C30.8614 3.46869 29.9785 3.08573 29.0088 2.7474C28.7471 2.65683 28.4854 2.57338 28.2224 2.49316C30.7837 1.84885 33.4629 1.50276 36.2243 1.50276C45.1921 1.50276 53.3003 5.10082 59.2067 10.9385C52.9654 4.29672 44.1142 0.12616 34.27 0.12616C15.3764 0.12616 0.0727692 15.426 0.0727692 34.2922C0.0727692 53.1552 15.3764 68.4454 34.27 68.4454C46.5181 68.4454 57.2187 62.0099 63.265 52.3627C58.5816 59.2742 51.2993 64.2799 42.8154 66.015Z" fill="#B1B3B5"/>
</g>
<defs>
<clipPath id="clip0_6806_101795">
<rect width="160" height="68.5714" fill="white"/>
</clipPath>
</defs>
</svg>
